<svg width="235" height="256.22" xmlns="http://www.w3.org/2000/svg">

 <metadata>image/svg+xmlOpenclipartthought cloud2010-04-03T07:00:08Graphics by Jon Phillips. From OCAL 0.18 release.http://openclipart.org/detail/36367/thought-cloud-by-anonymous-36367Anonymousballoonbubbleclip artclipartcloudcomicthinkingthought</metadata>
 <g>
  <title>background</title>
  <rect fill="none" id="canvas_background" height="402" width="582" y="-1" x="-1"/>
 </g>
 <g>
  <title>Layer 1</title>
  <g fill="#fff" stroke="#000" stroke-linejoin="round" id="layer1">
   <path d="m136.849989,5.429996c-14.6,0 -27.26,7.87 -34.35,19.49c-6.57,-4.64 -14.54,-7.45 -23.19,-7.45c-22.28,0 -40.37,18.09 -40.37,40.37c0,1.63 0.3,3.2 0.49,4.78c-19.23,3.07 -34,19.59 -34,39.68c0,19.91 14.48,36.39 33.46,39.68c-0.38,2.23 -0.69,4.51 -0.69,6.86c0,22.27 18.09,40.31 40.37,40.31c10.91,0 20.76,-4.35 28.03,-11.4c7.4,8.81 18.34,14.56 30.74,14.56c17.69,0 32.56,-11.49 38,-27.34c4.36,1.61 9,2.67 13.92,2.67c22.27,0 40.31,-18.1 40.31,-40.37c0,-11.2 -4.56,-21.31 -11.94,-28.62c3.73,-6.11 6.02,-13.2 6.02,-20.88c0,-22.27 -18.09,-40.31 -40.36,-40.31c-2.35,0 -4.63,0.25 -6.86,0.64c-3.6,-18.6 -19.94,-32.67 -39.58,-32.67z" stroke-width="10.857" id="path3422"/>
   <path stroke-width="4.7987" d="m192.975909,209.961452a15.064305,15.064305 0 1 1 -30.131136,0a15.064305,15.064305 0 1 1 30.131136,0z" id="path3424"/>
   <path stroke-width="5.4028" d="m208.447974,242.817469a10.455917,10.455917 0 1 1 -20.913588,0a10.455917,10.455917 0 1 1 20.913588,0z" id="path3426"/>
  </g>
  <text font-weight="bold" stroke="#000" transform="matrix(1.4360435048973454,0,0,1.6328566115531007,-209.73861579018435,-134.02629011007093) " xml:space="preserve" text-anchor="start" font-family="'Palatino Linotype', 'Book Antiqua', Palatino, serif" font-size="22" id="svg_1" y="124.069774" x="184.913264" stroke-width="0" fill="#000000">Make</text>
  <text stroke="#000" transform="matrix(0.8917500348584895,0,0,1.1698856676804255,4.891044825321103,-12.137445374423551) " font-weight="bold" xml:space="preserve" text-anchor="start" font-family="'Palatino Linotype', 'Book Antiqua', Palatino, serif" font-size="35" id="svg_2" y="101.692716" x="55.242781" fill-opacity="null" stroke-opacity="null" stroke-width="0" fill="#000000">Believe</text>
  <text stroke="#000" xml:space="preserve" text-anchor="start" font-family="'Palatino Linotype', 'Book Antiqua', Palatino, serif" font-size="57" id="svg_4" y="150.482837" x="151.277577" fill-opacity="null" stroke-opacity="null" stroke-width="0" fill="#000000">js</text>
 </g>
</svg>